<svg xmlns="http://www.w3.org/2000/svg" xmlns:xlink="http://www.w3.org/1999/xlink" width="1920" zoomAndPan="magnify" viewBox="0 0 1440 525.000007" height="700" preserveAspectRatio="xMidYMid meet" version="1.0"><defs><g/></defs><g fill="#cc1a30" fill-opacity="1"><g transform="translate(25.915177, 366.378946)"><g><path d="M 15.378906 45.777344 C 18.308594 35.523438 21.972656 23.4375 26 9.886719 C 29.664062 -3.296875 33.691406 -17.210938 37.71875 -31.859375 C 41.382812 -46.140625 45.410156 -60.789062 49.4375 -75.4375 C 53.464844 -90.085938 57.128906 -104.371094 60.789062 -117.917969 C 64.085938 -131.101562 67.382812 -143.554688 70.3125 -154.90625 C 73.242188 -165.894531 75.4375 -175.414062 77.269531 -183.105469 C 77.269531 -179.441406 78.367188 -173.949219 79.832031 -165.894531 C 81.296875 -157.835938 83.496094 -148.679688 85.691406 -138.0625 C 87.890625 -127.074219 90.820312 -115.355469 94.117188 -102.90625 C 97.046875 -90.085938 100.707031 -77.269531 104.371094 -64.820312 C 108.03125 -52.367188 111.695312 -40.28125 115.722656 -28.5625 C 119.382812 -16.84375 123.414062 -6.226562 127.441406 2.5625 C 131.46875 11.351562 135.496094 18.308594 139.527344 23.4375 C 143.1875 28.5625 146.851562 31.128906 150.511719 30.394531 C 154.175781 29.296875 157.835938 25.269531 161.5 17.945312 C 165.160156 10.621094 168.820312 1.464844 172.484375 -9.886719 C 176.144531 -21.238281 179.441406 -34.421875 183.105469 -49.070312 C 186.765625 -63.71875 190.0625 -78.734375 193.359375 -94.847656 C 196.652344 -110.960938 199.949219 -127.074219 203.246094 -143.921875 C 206.542969 -160.398438 209.472656 -176.511719 212.402344 -191.894531 C 215.332031 -207.273438 217.894531 -221.554688 220.824219 -234.738281 C 223.386719 -247.921875 225.949219 -259.640625 228.148438 -269.164062 L 201.414062 -266.601562 C 199.21875 -265.5 196.652344 -260.007812 193.722656 -249.753906 C 190.792969 -239.5 187.863281 -227.050781 184.933594 -211.667969 C 181.640625 -196.289062 178.34375 -179.808594 175.046875 -161.863281 C 171.75 -143.921875 168.820312 -126.707031 165.894531 -110.59375 C 162.964844 -94.117188 160.035156 -79.46875 157.835938 -67.015625 C 155.273438 -54.199219 153.441406 -45.777344 152.34375 -41.382812 C 147.214844 -56.761719 141.722656 -73.972656 136.230469 -93.015625 C 130.738281 -112.058594 125.609375 -131.46875 120.847656 -151.246094 C 115.722656 -171.019531 111.695312 -190.0625 108.03125 -208.738281 C 104.371094 -227.414062 101.804688 -244.261719 100.707031 -258.910156 C 100.707031 -259.277344 99.242188 -259.277344 96.3125 -259.277344 C 93.382812 -259.277344 90.085938 -258.910156 86.425781 -258.910156 C 82.761719 -258.542969 79.46875 -258.175781 76.539062 -257.8125 C 73.242188 -257.445312 71.410156 -257.078125 71.042969 -257.078125 C 68.847656 -256.347656 66.285156 -252.316406 63.355469 -244.992188 C 60.058594 -237.667969 56.394531 -227.78125 52.734375 -215.695312 C 49.070312 -203.613281 45.042969 -189.695312 40.648438 -174.316406 C 36.253906 -158.570312 31.859375 -142.457031 27.464844 -125.609375 C 23.070312 -108.765625 19.042969 -92.285156 15.015625 -75.804688 C 10.621094 -58.960938 6.957031 -43.578125 3.660156 -29.664062 C 0 -15.746094 -2.929688 -3.296875 -5.492188 6.957031 C -8.054688 17.210938 -9.886719 24.535156 -10.984375 28.5625 C -10.984375 32.957031 -10.253906 36.253906 -8.421875 38.816406 C -6.957031 41.746094 -4.761719 43.578125 -2.195312 44.675781 C 0.367188 46.140625 3.296875 46.875 6.226562 46.875 C 9.15625 46.875 12.449219 46.507812 15.378906 45.777344 Z M 15.378906 45.777344 "/></g></g></g><g fill="#ffc809" fill-opacity="1"><g transform="translate(236.463476, 366.378946)"><g><path d="M 70.3125 0 C 83.496094 0.367188 95.582031 -2.5625 106.566406 -8.789062 C 117.554688 -14.648438 127.441406 -21.972656 135.863281 -30.761719 C 144.285156 -39.550781 151.246094 -48.339844 157.105469 -57.496094 C 162.597656 -66.285156 166.257812 -73.972656 168.457031 -79.832031 L 159.300781 -81.664062 C 156.738281 -76.539062 152.710938 -69.945312 147.214844 -61.890625 C 141.355469 -53.832031 134.765625 -45.777344 127.074219 -38.453125 C 119.382812 -31.128906 110.960938 -24.902344 102.171875 -19.773438 C 93.382812 -14.648438 84.59375 -12.449219 75.804688 -13.550781 C 67.75 -13.914062 61.523438 -16.113281 56.761719 -20.140625 C 52 -24.167969 48.339844 -28.929688 45.777344 -34.421875 C 43.210938 -39.917969 41.746094 -45.410156 41.382812 -51.269531 C 40.648438 -57.128906 41.015625 -61.890625 41.746094 -66.285156 C 42.847656 -65.917969 43.945312 -65.550781 44.675781 -65.183594 C 45.410156 -64.820312 46.507812 -64.820312 47.972656 -64.820312 C 71.410156 -59.691406 90.820312 -61.15625 105.835938 -68.847656 C 120.847656 -76.539062 131.46875 -89.355469 138.0625 -107.664062 C 140.992188 -116.453125 142.089844 -124.511719 140.992188 -131.101562 C 139.890625 -137.695312 137.695312 -143.1875 134.03125 -147.582031 C 130.371094 -151.976562 126.34375 -155.273438 121.582031 -157.835938 C 116.453125 -160.035156 112.058594 -161.863281 108.03125 -163.328125 C 97.777344 -165.894531 86.425781 -166.625 74.707031 -165.160156 C 62.988281 -163.695312 51.636719 -159.300781 41.382812 -152.710938 C 31.128906 -145.75 21.972656 -135.863281 14.28125 -122.679688 C 6.589844 -109.496094 1.832031 -93.015625 0 -72.507812 C -0.730469 -63.71875 0 -54.929688 2.929688 -46.507812 C 5.492188 -37.71875 9.886719 -30.027344 16.113281 -23.4375 C 21.972656 -16.480469 29.664062 -10.984375 38.816406 -6.589844 C 47.972656 -2.195312 58.59375 0 70.3125 0 Z M 50.902344 -74.707031 L 43.945312 -76.171875 C 44.675781 -82.398438 46.507812 -90.085938 49.4375 -99.609375 C 52.367188 -109.128906 56.03125 -117.917969 60.789062 -126.34375 C 65.183594 -134.398438 70.679688 -141.355469 77.269531 -146.851562 C 83.496094 -151.976562 90.453125 -153.808594 98.511719 -152.34375 C 101.441406 -151.609375 104.003906 -150.144531 105.835938 -147.949219 C 107.300781 -145.75 108.398438 -143.1875 109.128906 -140.257812 C 109.863281 -137.328125 109.863281 -134.03125 109.863281 -131.101562 C 109.863281 -128.171875 109.496094 -125.242188 109.496094 -123.046875 C 108.03125 -115.355469 105.46875 -108.398438 102.539062 -101.804688 C 99.609375 -95.214844 95.582031 -89.355469 90.820312 -84.960938 C 86.058594 -80.566406 80.199219 -77.269531 73.609375 -75.074219 C 67.015625 -72.875 59.324219 -72.875 50.902344 -74.707031 Z M 50.902344 -74.707031 "/></g></g></g><g fill="#ffc809" fill-opacity="1"><g transform="translate(390.633123, 366.378946)"><g><path d="M 65.550781 -8.421875 C 72.875 -15.015625 78.003906 -20.875 80.566406 -25.269531 C 83.128906 -29.664062 84.59375 -32.226562 84.59375 -32.59375 C 84.226562 -28.199219 85.328125 -23.804688 87.523438 -19.773438 C 89.722656 -15.746094 92.285156 -12.085938 95.945312 -9.15625 C 99.242188 -6.226562 102.90625 -3.660156 107.300781 -2.195312 C 111.695312 -0.367188 115.722656 0.367188 120.117188 0 C 127.808594 0 135.132812 -3.296875 142.089844 -9.886719 C 149.046875 -16.480469 155.273438 -23.804688 160.765625 -32.59375 C 165.894531 -41.015625 170.652344 -49.4375 174.316406 -57.859375 C 177.976562 -65.917969 180.175781 -72.144531 181.640625 -76.171875 L 171.019531 -80.199219 C 169.554688 -76.539062 166.625 -71.410156 162.964844 -64.085938 C 159.300781 -56.761719 155.273438 -49.804688 150.878906 -42.480469 C 146.484375 -35.15625 141.722656 -28.929688 137.328125 -23.804688 C 132.933594 -18.308594 129.273438 -15.746094 126.34375 -15.746094 C 124.144531 -15.746094 122.3125 -16.480469 121.214844 -18.308594 C 120.117188 -20.140625 119.382812 -22.339844 119.019531 -24.535156 C 118.652344 -26.734375 118.652344 -29.296875 118.652344 -31.859375 C 118.652344 -34.421875 119.019531 -36.621094 119.382812 -38.085938 C 120.484375 -46.875 122.3125 -56.761719 124.878906 -67.75 C 127.441406 -78.734375 130.003906 -88.988281 132.933594 -99.242188 C 135.863281 -109.496094 138.425781 -118.652344 140.992188 -126.707031 C 143.1875 -134.765625 145.019531 -140.992188 146.484375 -145.386719 C 146.484375 -146.117188 145.75 -146.851562 143.921875 -147.582031 C 142.089844 -148.316406 139.890625 -149.046875 137.328125 -149.78125 C 134.398438 -150.144531 131.46875 -150.144531 128.171875 -150.144531 C 124.878906 -149.78125 121.949219 -148.679688 119.019531 -147.214844 C 119.019531 -147.214844 118.652344 -147.949219 117.917969 -149.78125 C 116.820312 -151.246094 115.355469 -153.074219 113.160156 -155.273438 C 110.960938 -157.46875 108.03125 -159.300781 104.734375 -161.5 C 101.074219 -163.328125 97.410156 -164.429688 93.015625 -165.160156 C 83.863281 -165.894531 74.339844 -164.792969 64.085938 -161.863281 C 53.832031 -158.570312 43.945312 -152.710938 35.15625 -144.285156 C 26 -135.863281 18.308594 -124.511719 11.71875 -109.863281 C 5.125 -95.214844 1.464844 -77.269531 0.367188 -55.664062 C -0.730469 -40.28125 1.097656 -28.199219 6.226562 -19.773438 C 11.351562 -11.351562 17.210938 -5.492188 24.535156 -2.5625 C 31.859375 0.367188 39.183594 1.464844 46.875 0 C 54.566406 -1.464844 60.789062 -4.027344 65.550781 -8.421875 Z M 63.71875 -20.507812 C 59.324219 -17.578125 55.664062 -16.480469 52.734375 -17.945312 C 49.4375 -19.410156 46.875 -21.972656 44.675781 -25.632812 C 42.480469 -29.296875 41.015625 -33.691406 40.28125 -39.183594 C 39.550781 -44.3125 39.183594 -49.804688 39.917969 -54.929688 C 40.648438 -63.71875 42.480469 -73.242188 45.042969 -84.226562 C 47.605469 -94.847656 51.269531 -105.101562 55.664062 -114.625 C 60.058594 -124.144531 65.183594 -132.566406 71.410156 -139.527344 C 77.636719 -146.117188 84.960938 -149.78125 93.015625 -150.511719 C 95.945312 -150.511719 98.144531 -150.144531 100.339844 -149.414062 C 102.539062 -148.679688 104.003906 -147.582031 105.46875 -146.484375 C 106.933594 -145.019531 108.03125 -143.921875 108.765625 -142.457031 C 109.496094 -140.992188 109.863281 -139.890625 110.59375 -139.160156 C 107.300781 -130.738281 104.371094 -121.214844 102.171875 -110.960938 C 99.609375 -100.707031 96.679688 -90.085938 93.75 -79.46875 C 90.453125 -68.480469 86.425781 -58.226562 82.03125 -47.972656 C 77.269531 -37.71875 71.042969 -28.5625 63.71875 -20.507812 Z M 63.71875 -20.507812 "/></g></g></g><g fill="#ffc809" fill-opacity="1"><g transform="translate(559.084492, 366.378946)"><g><path d="M 56.03125 -127.074219 L 66.285156 -165.527344 C 66.285156 -166.625 64.820312 -167.722656 61.15625 -168.457031 C 57.496094 -169.1875 53.464844 -169.921875 48.707031 -169.921875 C 43.578125 -169.921875 38.816406 -169.1875 34.058594 -168.089844 C 29.296875 -166.625 26 -164.429688 24.535156 -161.5 C 19.410156 -141.722656 14.648438 -122.679688 10.984375 -103.636719 C 7.324219 -84.59375 3.660156 -65.550781 0.367188 -46.507812 C -0.367188 -41.382812 -0.730469 -36.253906 0 -31.128906 C 0.730469 -25.632812 1.832031 -20.507812 4.027344 -16.113281 C 6.226562 -11.71875 8.789062 -7.691406 12.449219 -4.761719 C 15.746094 -1.832031 19.773438 0 24.535156 0 C 25.269531 0 26.367188 -0.730469 27.464844 -2.929688 C 28.199219 -5.125 29.296875 -7.691406 30.027344 -10.621094 C 30.761719 -13.550781 31.128906 -16.480469 31.859375 -19.773438 C 32.59375 -22.703125 32.957031 -25.632812 33.691406 -27.832031 C 35.15625 -34.789062 36.988281 -42.480469 39.550781 -51.269531 C 41.746094 -60.058594 44.675781 -68.847656 47.972656 -77.636719 C 50.902344 -86.425781 54.566406 -94.847656 58.59375 -103.269531 C 62.253906 -111.695312 66.648438 -119.019531 71.042969 -125.609375 C 75.4375 -131.835938 79.832031 -136.960938 84.960938 -140.992188 C 89.722656 -144.652344 94.847656 -146.484375 99.976562 -146.484375 C 104.371094 -145.019531 107.300781 -142.820312 108.765625 -139.890625 C 110.230469 -136.597656 110.59375 -132.933594 109.863281 -128.539062 C 109.128906 -124.144531 108.03125 -119.382812 106.566406 -114.257812 C 105.101562 -109.128906 103.636719 -104.371094 102.90625 -99.242188 C 102.171875 -95.582031 102.539062 -92.285156 104.734375 -89.355469 C 106.933594 -86.425781 109.496094 -83.863281 113.160156 -81.664062 C 116.453125 -79.46875 120.117188 -77.636719 124.511719 -76.902344 C 128.90625 -75.804688 132.933594 -75.804688 137.328125 -76.902344 C 135.863281 -78.367188 136.960938 -83.863281 140.257812 -93.382812 C 141.722656 -99.242188 143.1875 -105.835938 144.652344 -112.425781 C 146.117188 -119.019531 146.484375 -125.242188 146.484375 -131.101562 C 146.117188 -136.960938 144.652344 -142.457031 142.457031 -147.582031 C 140.257812 -152.34375 136.230469 -156.371094 131.101562 -159.300781 C 125.976562 -161.863281 119.75 -163.328125 112.425781 -163.328125 C 105.101562 -163.328125 97.777344 -161.863281 90.453125 -158.933594 C 83.128906 -156.003906 76.539062 -151.976562 70.3125 -146.851562 C 63.71875 -141.355469 58.960938 -134.765625 56.03125 -127.074219 Z M 56.03125 -127.074219 "/></g></g></g><g fill="#cc1a30" fill-opacity="1"><g transform="translate(707.022372, 366.378946)"><g><path d="M 97.777344 -228.878906 C 101.804688 -228.878906 107.300781 -229.613281 114.257812 -230.34375 C 121.214844 -231.078125 128.539062 -232.175781 136.230469 -233.273438 C 143.554688 -234.375 150.878906 -235.472656 157.835938 -236.9375 C 164.429688 -238.402344 169.921875 -239.867188 173.949219 -241.332031 L 179.808594 -276.488281 C 175.414062 -275.023438 168.457031 -273.558594 159.667969 -272.09375 C 150.511719 -270.628906 140.992188 -269.53125 131.101562 -268.796875 C 120.847656 -267.699219 111.328125 -266.964844 102.171875 -266.234375 C 93.015625 -265.5 86.058594 -265.5 81.664062 -265.5 C 74.339844 -265.5 66.648438 -265.867188 58.226562 -266.964844 C 49.4375 -268.066406 41.015625 -268.796875 32.226562 -269.164062 C 23.4375 -269.164062 14.648438 -268.429688 6.589844 -266.601562 C -1.832031 -264.769531 -9.15625 -260.742188 -15.746094 -254.882812 L -4.027344 -225.21875 C -2.5625 -225.949219 1.097656 -227.050781 6.226562 -228.148438 C 11.351562 -229.246094 16.84375 -229.980469 23.4375 -230.710938 C 29.664062 -231.445312 36.253906 -231.808594 43.210938 -231.808594 C 49.804688 -231.808594 56.03125 -231.078125 61.15625 -229.980469 C 58.960938 -222.65625 56.03125 -212.035156 52.734375 -198.117188 C 49.070312 -183.835938 45.410156 -167.722656 41.746094 -149.78125 C 37.71875 -131.835938 33.691406 -113.160156 29.664062 -93.382812 C 25.632812 -73.609375 21.972656 -54.929688 19.042969 -37.351562 C 15.746094 -19.410156 13.183594 -3.296875 11.351562 10.621094 C 9.15625 24.902344 8.421875 35.523438 8.421875 42.113281 C 8.421875 44.675781 10.621094 46.507812 15.015625 47.242188 C 19.410156 48.339844 24.535156 48.707031 30.027344 47.972656 C 35.15625 47.605469 40.28125 46.507812 44.675781 44.675781 C 49.070312 42.847656 51.636719 40.28125 51.636719 36.621094 C 51.636719 30.027344 52.367188 20.140625 54.199219 6.226562 C 55.664062 -7.324219 57.859375 -22.703125 60.425781 -40.28125 C 62.988281 -57.859375 65.917969 -76.171875 69.578125 -95.214844 C 72.875 -114.257812 76.171875 -132.933594 79.832031 -150.511719 C 83.128906 -168.089844 86.425781 -183.835938 89.722656 -197.753906 C 92.652344 -211.667969 95.582031 -221.921875 97.777344 -228.878906 Z M 97.777344 -228.878906 "/></g></g></g><g fill="#ffc809" fill-opacity="1"><g transform="translate(835.149997, 366.378946)"><g><path d="M 56.03125 -127.074219 L 66.285156 -165.527344 C 66.285156 -166.625 64.820312 -167.722656 61.15625 -168.457031 C 57.496094 -169.1875 53.464844 -169.921875 48.707031 -169.921875 C 43.578125 -169.921875 38.816406 -169.1875 34.058594 -168.089844 C 29.296875 -166.625 26 -164.429688 24.535156 -161.5 C 19.410156 -141.722656 14.648438 -122.679688 10.984375 -103.636719 C 7.324219 -84.59375 3.660156 -65.550781 0.367188 -46.507812 C -0.367188 -41.382812 -0.730469 -36.253906 0 -31.128906 C 0.730469 -25.632812 1.832031 -20.507812 4.027344 -16.113281 C 6.226562 -11.71875 8.789062 -7.691406 12.449219 -4.761719 C 15.746094 -1.832031 19.773438 0 24.535156 0 C 25.269531 0 26.367188 -0.730469 27.464844 -2.929688 C 28.199219 -5.125 29.296875 -7.691406 30.027344 -10.621094 C 30.761719 -13.550781 31.128906 -16.480469 31.859375 -19.773438 C 32.59375 -22.703125 32.957031 -25.632812 33.691406 -27.832031 C 35.15625 -34.789062 36.988281 -42.480469 39.550781 -51.269531 C 41.746094 -60.058594 44.675781 -68.847656 47.972656 -77.636719 C 50.902344 -86.425781 54.566406 -94.847656 58.59375 -103.269531 C 62.253906 -111.695312 66.648438 -119.019531 71.042969 -125.609375 C 75.4375 -131.835938 79.832031 -136.960938 84.960938 -140.992188 C 89.722656 -144.652344 94.847656 -146.484375 99.976562 -146.484375 C 104.371094 -145.019531 107.300781 -142.820312 108.765625 -139.890625 C 110.230469 -136.597656 110.59375 -132.933594 109.863281 -128.539062 C 109.128906 -124.144531 108.03125 -119.382812 106.566406 -114.257812 C 105.101562 -109.128906 103.636719 -104.371094 102.90625 -99.242188 C 102.171875 -95.582031 102.539062 -92.285156 104.734375 -89.355469 C 106.933594 -86.425781 109.496094 -83.863281 113.160156 -81.664062 C 116.453125 -79.46875 120.117188 -77.636719 124.511719 -76.902344 C 128.90625 -75.804688 132.933594 -75.804688 137.328125 -76.902344 C 135.863281 -78.367188 136.960938 -83.863281 140.257812 -93.382812 C 141.722656 -99.242188 143.1875 -105.835938 144.652344 -112.425781 C 146.117188 -119.019531 146.484375 -125.242188 146.484375 -131.101562 C 146.117188 -136.960938 144.652344 -142.457031 142.457031 -147.582031 C 140.257812 -152.34375 136.230469 -156.371094 131.101562 -159.300781 C 125.976562 -161.863281 119.75 -163.328125 112.425781 -163.328125 C 105.101562 -163.328125 97.777344 -161.863281 90.453125 -158.933594 C 83.128906 -156.003906 76.539062 -151.976562 70.3125 -146.851562 C 63.71875 -141.355469 58.960938 -134.765625 56.03125 -127.074219 Z M 56.03125 -127.074219 "/></g></g></g><g fill="#ffc809" fill-opacity="1"><g transform="translate(983.094247, 366.378946)"><g><path d="M 70.3125 0 C 83.496094 0.367188 95.582031 -2.5625 106.566406 -8.789062 C 117.554688 -14.648438 127.441406 -21.972656 135.863281 -30.761719 C 144.285156 -39.550781 151.246094 -48.339844 157.105469 -57.496094 C 162.597656 -66.285156 166.257812 -73.972656 168.457031 -79.832031 L 159.300781 -81.664062 C 156.738281 -76.539062 152.710938 -69.945312 147.214844 -61.890625 C 141.355469 -53.832031 134.765625 -45.777344 127.074219 -38.453125 C 119.382812 -31.128906 110.960938 -24.902344 102.171875 -19.773438 C 93.382812 -14.648438 84.59375 -12.449219 75.804688 -13.550781 C 67.75 -13.914062 61.523438 -16.113281 56.761719 -20.140625 C 52 -24.167969 48.339844 -28.929688 45.777344 -34.421875 C 43.210938 -39.917969 41.746094 -45.410156 41.382812 -51.269531 C 40.648438 -57.128906 41.015625 -61.890625 41.746094 -66.285156 C 42.847656 -65.917969 43.945312 -65.550781 44.675781 -65.183594 C 45.410156 -64.820312 46.507812 -64.820312 47.972656 -64.820312 C 71.410156 -59.691406 90.820312 -61.15625 105.835938 -68.847656 C 120.847656 -76.539062 131.46875 -89.355469 138.0625 -107.664062 C 140.992188 -116.453125 142.089844 -124.511719 140.992188 -131.101562 C 139.890625 -137.695312 137.695312 -143.1875 134.03125 -147.582031 C 130.371094 -151.976562 126.34375 -155.273438 121.582031 -157.835938 C 116.453125 -160.035156 112.058594 -161.863281 108.03125 -163.328125 C 97.777344 -165.894531 86.425781 -166.625 74.707031 -165.160156 C 62.988281 -163.695312 51.636719 -159.300781 41.382812 -152.710938 C 31.128906 -145.75 21.972656 -135.863281 14.28125 -122.679688 C 6.589844 -109.496094 1.832031 -93.015625 0 -72.507812 C -0.730469 -63.71875 0 -54.929688 2.929688 -46.507812 C 5.492188 -37.71875 9.886719 -30.027344 16.113281 -23.4375 C 21.972656 -16.480469 29.664062 -10.984375 38.816406 -6.589844 C 47.972656 -2.195312 58.59375 0 70.3125 0 Z M 50.902344 -74.707031 L 43.945312 -76.171875 C 44.675781 -82.398438 46.507812 -90.085938 49.4375 -99.609375 C 52.367188 -109.128906 56.03125 -117.917969 60.789062 -126.34375 C 65.183594 -134.398438 70.679688 -141.355469 77.269531 -146.851562 C 83.496094 -151.976562 90.453125 -153.808594 98.511719 -152.34375 C 101.441406 -151.609375 104.003906 -150.144531 105.835938 -147.949219 C 107.300781 -145.75 108.398438 -143.1875 109.128906 -140.257812 C 109.863281 -137.328125 109.863281 -134.03125 109.863281 -131.101562 C 109.863281 -128.171875 109.496094 -125.242188 109.496094 -123.046875 C 108.03125 -115.355469 105.46875 -108.398438 102.539062 -101.804688 C 99.609375 -95.214844 95.582031 -89.355469 90.820312 -84.960938 C 86.058594 -80.566406 80.199219 -77.269531 73.609375 -75.074219 C 67.015625 -72.875 59.324219 -72.875 50.902344 -74.707031 Z M 50.902344 -74.707031 "/></g></g></g><g fill="#ffc809" fill-opacity="1"><g transform="translate(1137.263894, 366.378946)"><g><path d="M 65.550781 -8.421875 C 72.875 -15.015625 78.003906 -20.875 80.566406 -25.269531 C 83.128906 -29.664062 84.59375 -32.226562 84.59375 -32.59375 C 84.226562 -28.199219 85.328125 -23.804688 87.523438 -19.773438 C 89.722656 -15.746094 92.285156 -12.085938 95.945312 -9.15625 C 99.242188 -6.226562 102.90625 -3.660156 107.300781 -2.195312 C 111.695312 -0.367188 115.722656 0.367188 120.117188 0 C 127.808594 0 135.132812 -3.296875 142.089844 -9.886719 C 149.046875 -16.480469 155.273438 -23.804688 160.765625 -32.59375 C 165.894531 -41.015625 170.652344 -49.4375 174.316406 -57.859375 C 177.976562 -65.917969 180.175781 -72.144531 181.640625 -76.171875 L 171.019531 -80.199219 C 169.554688 -76.539062 166.625 -71.410156 162.964844 -64.085938 C 159.300781 -56.761719 155.273438 -49.804688 150.878906 -42.480469 C 146.484375 -35.15625 141.722656 -28.929688 137.328125 -23.804688 C 132.933594 -18.308594 129.273438 -15.746094 126.34375 -15.746094 C 124.144531 -15.746094 122.3125 -16.480469 121.214844 -18.308594 C 120.117188 -20.140625 119.382812 -22.339844 119.019531 -24.535156 C 118.652344 -26.734375 118.652344 -29.296875 118.652344 -31.859375 C 118.652344 -34.421875 119.019531 -36.621094 119.382812 -38.085938 C 120.484375 -46.875 122.3125 -56.761719 124.878906 -67.75 C 127.441406 -78.734375 130.003906 -88.988281 132.933594 -99.242188 C 135.863281 -109.496094 138.425781 -118.652344 140.992188 -126.707031 C 143.1875 -134.765625 145.019531 -140.992188 146.484375 -145.386719 C 146.484375 -146.117188 145.75 -146.851562 143.921875 -147.582031 C 142.089844 -148.316406 139.890625 -149.046875 137.328125 -149.78125 C 134.398438 -150.144531 131.46875 -150.144531 128.171875 -150.144531 C 124.878906 -149.78125 121.949219 -148.679688 119.019531 -147.214844 C 119.019531 -147.214844 118.652344 -147.949219 117.917969 -149.78125 C 116.820312 -151.246094 115.355469 -153.074219 113.160156 -155.273438 C 110.960938 -157.46875 108.03125 -159.300781 104.734375 -161.5 C 101.074219 -163.328125 97.410156 -164.429688 93.015625 -165.160156 C 83.863281 -165.894531 74.339844 -164.792969 64.085938 -161.863281 C 53.832031 -158.570312 43.945312 -152.710938 35.15625 -144.285156 C 26 -135.863281 18.308594 -124.511719 11.71875 -109.863281 C 5.125 -95.214844 1.464844 -77.269531 0.367188 -55.664062 C -0.730469 -40.28125 1.097656 -28.199219 6.226562 -19.773438 C 11.351562 -11.351562 17.210938 -5.492188 24.535156 -2.5625 C 31.859375 0.367188 39.183594 1.464844 46.875 0 C 54.566406 -1.464844 60.789062 -4.027344 65.550781 -8.421875 Z M 63.71875 -20.507812 C 59.324219 -17.578125 55.664062 -16.480469 52.734375 -17.945312 C 49.4375 -19.410156 46.875 -21.972656 44.675781 -25.632812 C 42.480469 -29.296875 41.015625 -33.691406 40.28125 -39.183594 C 39.550781 -44.3125 39.183594 -49.804688 39.917969 -54.929688 C 40.648438 -63.71875 42.480469 -73.242188 45.042969 -84.226562 C 47.605469 -94.847656 51.269531 -105.101562 55.664062 -114.625 C 60.058594 -124.144531 65.183594 -132.566406 71.410156 -139.527344 C 77.636719 -146.117188 84.960938 -149.78125 93.015625 -150.511719 C 95.945312 -150.511719 98.144531 -150.144531 100.339844 -149.414062 C 102.539062 -148.679688 104.003906 -147.582031 105.46875 -146.484375 C 106.933594 -145.019531 108.03125 -143.921875 108.765625 -142.457031 C 109.496094 -140.992188 109.863281 -139.890625 110.59375 -139.160156 C 107.300781 -130.738281 104.371094 -121.214844 102.171875 -110.960938 C 99.609375 -100.707031 96.679688 -90.085938 93.75 -79.46875 C 90.453125 -68.480469 86.425781 -58.226562 82.03125 -47.972656 C 77.269531 -37.71875 71.042969 -28.5625 63.71875 -20.507812 Z M 63.71875 -20.507812 "/></g></g></g><g fill="#ffc809" fill-opacity="1"><g transform="translate(1305.715262, 366.378946)"><g><path d="M 57.496094 -143.921875 L 62.253906 -143.554688 C 65.183594 -143.554688 68.847656 -143.554688 73.242188 -143.921875 C 77.269531 -143.921875 81.296875 -144.652344 85.691406 -145.75 C 89.722656 -146.484375 93.015625 -148.316406 95.214844 -150.511719 L 98.875 -176.878906 C 95.214844 -175.414062 91.917969 -174.316406 88.257812 -173.582031 C 84.59375 -172.851562 80.933594 -172.117188 78.003906 -172.117188 C 75.074219 -172.117188 72.507812 -172.117188 70.679688 -172.484375 C 68.480469 -172.484375 67.382812 -172.851562 67.382812 -172.851562 L 80.933594 -210.570312 C 81.296875 -211.667969 79.832031 -212.765625 76.171875 -214.230469 C 72.507812 -215.695312 68.480469 -216.429688 63.71875 -217.160156 C 58.59375 -217.894531 53.832031 -217.527344 49.070312 -216.796875 C 43.945312 -216.0625 40.648438 -213.867188 38.816406 -210.9375 L 38.816406 -210.203125 C 36.988281 -205.808594 35.886719 -202.511719 35.15625 -200.316406 C 34.421875 -198.117188 33.691406 -196.289062 33.324219 -194.824219 C 32.59375 -192.992188 32.226562 -191.160156 31.492188 -188.964844 C 30.761719 -186.765625 30.027344 -183.46875 28.5625 -179.074219 C 24.902344 -179.441406 20.507812 -180.175781 15.378906 -180.90625 C 9.886719 -181.640625 4.394531 -182.738281 -0.730469 -184.570312 C -2.195312 -184.933594 -3.660156 -183.835938 -5.125 -181.640625 C -6.957031 -179.441406 -8.421875 -176.511719 -9.519531 -172.851562 C -10.621094 -169.1875 -10.984375 -165.527344 -10.621094 -161.863281 C -10.253906 -158.203125 -8.421875 -155.273438 -5.492188 -153.074219 L -5.125 -153.074219 C -1.832031 -152.34375 2.195312 -151.609375 6.957031 -150.878906 C 11.71875 -150.144531 15.746094 -149.78125 19.410156 -149.414062 C 15.015625 -131.835938 10.621094 -114.988281 6.957031 -98.511719 C 2.929688 -81.664062 0.730469 -64.453125 0.367188 -46.507812 C 0 -37.71875 1.097656 -30.027344 4.027344 -24.167969 C 6.957031 -17.945312 10.621094 -13.183594 15.378906 -9.519531 C 19.773438 -5.859375 25.269531 -2.929688 31.128906 -1.464844 C 36.988281 0 42.847656 0.730469 48.707031 0 C 55.296875 -0.367188 62.621094 -4.027344 70.3125 -11.351562 C 78.003906 -18.308594 85.328125 -26.367188 91.917969 -35.886719 C 98.511719 -45.410156 104.371094 -54.566406 109.496094 -63.71875 C 114.257812 -72.875 117.554688 -79.832031 119.382812 -84.59375 L 110.59375 -87.890625 C 109.128906 -82.761719 105.835938 -76.171875 101.074219 -68.113281 C 95.945312 -60.058594 90.453125 -52 84.59375 -43.945312 C 78.734375 -35.886719 72.507812 -28.929688 66.648438 -23.070312 C 60.425781 -17.210938 55.296875 -14.648438 51.269531 -14.648438 C 48.339844 -14.648438 45.777344 -15.378906 43.945312 -17.578125 C 42.113281 -19.410156 40.648438 -21.605469 39.917969 -24.535156 C 38.816406 -27.097656 38.085938 -29.664062 37.71875 -32.59375 C 37.351562 -35.523438 37.351562 -37.71875 37.351562 -39.917969 C 37.351562 -47.972656 37.71875 -56.394531 38.816406 -65.550781 C 39.917969 -74.339844 41.382812 -83.496094 43.578125 -92.652344 C 45.410156 -101.804688 47.605469 -110.59375 49.804688 -119.382812 C 52 -128.171875 54.566406 -136.230469 57.496094 -143.921875 Z M 57.496094 -143.921875 "/></g></g></g></svg>